<?xml version="1.0" encoding="utf-8"?>
<!-- Generator: Adobe Illustrator 16.0.0, SVG Export Plug-In . SVG Version: 6.00 Build 0)  -->
<!DOCTYPE svg PUBLIC "-//W3C//DTD SVG 1.1//EN" "http://www.w3.org/Graphics/SVG/1.1/DTD/svg11.dtd">
<svg version="1.1" id="Layer_1" xmlns="http://www.w3.org/2000/svg" xmlns:xlink="http://www.w3.org/1999/xlink" x="0px" y="0px"
	 width="400px" height="34.066px" viewBox="0 0 400 34.066" enable-background="new 0 0 400 34.066" xml:space="preserve">
<g>
	<path d="M34.984,24.108c0-2.417-0.524-5.518-2.578-6.808c-0.201-0.12-0.645-0.282-0.805-0.401c0.161-0.122,0.604-0.363,0.805-0.484
		c2.054-1.289,2.578-4.309,2.578-6.725c0-3.142-0.927-6.927-4.793-7.33c-3.665-0.403-8.175-0.604-11.84-0.604
		c-3.664,0-9.263,0.202-12.887,0.604C4.899,2.4,2.765,2.642,2,2.763l0.524,6.363c0.724-0.121,2.537-0.362,3.06-0.402
		c3.625-0.403,9.142-0.604,12.767-0.604c2.497,0,6.081,0.202,7.612,0.363c1.289,0.161,1.571,1.248,1.571,2.578
		c0,1.329-0.363,2.375-1.652,2.537c-1.53,0.161-4.631,0.322-7.128,0.322H9.571v5.96h9.183c2.497,0,5.598,0.122,7.128,0.282
		c1.289,0.163,1.652,1.249,1.652,2.578s-0.282,2.457-1.571,2.619c-1.531,0.16-5.115,0.321-7.612,0.321
		c-3.625,0-9.142-0.161-12.767-0.563c-0.523-0.041-2.336-0.282-3.06-0.402L2,30.993c0.765,0.122,2.899,0.403,3.463,0.444
		c3.625,0.403,9.223,0.603,12.887,0.603c3.665,0,8.176-0.161,11.84-0.564C34.057,31.074,34.984,27.249,34.984,24.108L34.984,24.108z
		"/>
	<path fill-rule="evenodd" clip-rule="evenodd" d="M72.831,16.899c0-1.571-0.081-7.854-0.201-9.425
		c-0.202-2.456-2.013-4.833-4.671-5.114c-3.706-0.403-8.377-0.604-12.123-0.604s-8.699,0.161-12.163,0.484
		c-2.416,0.241-5.315,0.563-5.315,0.563v28.191c0.402,0.041,3.101,0.362,5.315,0.564c3.463,0.323,8.417,0.483,12.163,0.483
		s8.417-0.161,12.123-0.564c2.658-0.282,4.47-2.697,4.671-5.155C72.75,24.751,72.831,18.469,72.831,16.899L72.831,16.899z
		 M65.38,16.899c0,2.053-0.081,5.678-0.121,6.402c-0.081,1.088-0.604,1.771-1.651,1.893c-1.651,0.202-5.276,0.364-7.773,0.364
		c-2.538,0-6.162-0.163-7.733-0.323c-0.765-0.08-1.932-0.162-2.294-0.202V8.763c0.362-0.04,1.53-0.162,2.294-0.242
		c1.571-0.161,5.195-0.282,7.733-0.282c2.497,0,6.122,0.161,7.773,0.362c1.047,0.122,1.571,0.806,1.651,1.893
		C65.3,11.219,65.38,14.844,65.38,16.899L65.38,16.899z"/>
	<path d="M108.831,30.993l-0.523-6.322c-0.725,0.121-2.538,0.362-3.061,0.401c-3.625,0.403-9.142,0.565-12.767,0.565
		c-2.497,0-6.041-0.202-7.571-0.364c-1.289-0.161-1.611-1.208-1.611-2.537s0.322-2.376,1.611-2.537
		c1.53-0.162,4.671-0.323,7.168-0.323h8.015v-5.96h-8.015c-2.497,0-5.639-0.161-7.168-0.322c-1.289-0.162-1.611-1.249-1.611-2.579
		c0-1.328,0.322-2.335,1.611-2.496c1.53-0.161,5.074-0.362,7.571-0.362c3.625,0,9.142,0.201,12.767,0.604
		c0.523,0.04,2.336,0.282,3.061,0.403l0.523-6.404c-0.765-0.121-2.9-0.363-3.463-0.403c-3.625-0.403-9.223-0.604-12.888-0.604
		c-3.664,0-8.175,0.161-11.84,0.564c-3.867,0.403-4.793,4.229-4.793,7.371c0,2.416,0.524,5.477,2.578,6.766
		c0.202,0.12,0.645,0.321,0.806,0.443c-0.161,0.119-0.604,0.321-0.806,0.442c-2.054,1.29-2.578,4.349-2.578,6.767
		c0,3.141,0.926,6.926,4.793,7.33c3.665,0.403,8.176,0.603,11.84,0.603c3.665,0,9.263-0.2,12.888-0.603
		C105.931,31.396,108.066,31.115,108.831,30.993L108.831,30.993z"/>
	<path fill-rule="evenodd" clip-rule="evenodd" d="M146.982,31.8v-2.278h-7.025c0.232-0.115,0.618-0.231,0.811-0.385
		c0.964-0.771,1.543-2.162,1.621-3.397c0.116-1.504,0.193-6.832,0.193-8.336c0-1.505-0.077-7.41-0.193-8.916
		c-0.193-2.354-1.891-4.631-4.4-4.901c-3.512-0.386-7.41-0.579-10.922-0.579c-3.512,0-7.372,0.193-10.883,0.579
		c-2.509,0.271-4.207,2.547-4.4,4.901c-0.116,1.505-0.193,7.41-0.193,8.916c0,1.504,0.077,7.411,0.193,8.915
		c0.193,2.354,1.891,4.67,4.4,4.94c3.512,0.387,7.372,0.541,10.883,0.541H146.982L146.982,31.8z M139.88,17.403
		c0,1.66-0.077,6.87-0.154,8.143c-0.154,1.854-1.158,3.204-3.011,3.397c-2.933,0.308-5.093,0.464-9.648,0.464
		c-3.126,0-6.754-0.156-9.687-0.464c-1.853-0.193-2.779-1.543-2.934-3.397c-0.077-1.273-0.154-6.483-0.154-8.143
		c0-1.659,0.077-6.87,0.154-8.144c0.155-1.853,1.081-3.165,2.934-3.358c2.933-0.308,6.561-0.501,9.687-0.501
		s6.716,0.193,9.648,0.501c1.853,0.193,2.856,1.505,3.011,3.358C139.803,10.534,139.88,15.744,139.88,17.403L139.88,17.403z"/>
	<path d="M178.621,17.576V3.278h-2.702v14.298c0,1.657-0.077,6.937-0.154,8.208c-0.154,1.851-1.119,3.162-2.972,3.353
		c-2.934,0.308-6.561,0.501-9.688,0.501c-3.126,0-6.754-0.193-9.648-0.501c-1.853-0.191-2.817-1.502-2.972-3.353
		c-0.077-1.271-0.154-6.551-0.154-8.208V3.278h-2.703v14.298c0,1.503,0.078,7.476,0.193,8.98c0.193,2.35,1.891,4.626,4.399,4.896
		c3.513,0.385,7.372,0.579,10.884,0.579c3.513,0,7.411-0.193,10.923-0.579c2.509-0.271,4.207-2.547,4.4-4.896
		C178.543,25.051,178.621,19.079,178.621,17.576L178.621,17.576z"/>
	<path fill-rule="evenodd" clip-rule="evenodd" d="M214.388,17.52c0-1.506-0.077-7.527-0.193-9.032
		c-0.191-2.354-1.852-4.631-4.36-4.901c-3.513-0.386-7.41-0.579-10.923-0.579c-3.512,0-8.336,0.193-11.81,0.579
		c-0.541,0.039-2.277,0.231-3.011,0.347l0.193,2.393c0.695-0.115,2.432-0.308,2.933-0.347c3.474-0.385,8.221-0.579,11.694-0.579
		c3.126,0,6.717,0.193,9.649,0.501c1.852,0.193,2.816,1.505,2.972,3.358c0.038,0.618,0.116,2.432,0.153,4.014
		c-0.347-0.039-2.275-0.271-2.779-0.309c-3.087-0.27-7.178-0.463-10.034-0.463c-3.512,0-7.487,0.193-10.96,0.579
		c-2.509,0.271-4.091,2.393-4.323,4.864c-0.154,1.427-0.193,2.817-0.193,4.284c0,1.466,0.039,2.856,0.193,4.284
		c0.232,2.469,1.814,4.67,4.323,4.94c3.473,0.385,7.448,0.579,10.96,0.579c3.513,0,7.371-0.154,10.884-0.541
		c2.509-0.269,4.207-2.586,4.4-4.939C214.349,23.925,214.388,20.144,214.388,17.52L214.388,17.52z M211.686,18.793
		c0,2.315-0.037,4.631-0.193,6.985c-0.153,1.852-1.08,3.165-2.932,3.358c-2.933,0.308-6.562,0.501-9.688,0.501
		c-2.971,0-6.599-0.116-9.61-0.424c-1.929-0.193-2.895-1.39-3.049-3.204c-0.116-1.196-0.116-2.509-0.116-3.705
		c0-1.196,0-2.546,0.116-3.745c0.154-1.813,1.12-3.009,3.049-3.202c3.011-0.31,6.639-0.464,9.61-0.464
		c2.856,0,6.87,0.193,9.958,0.464c0.501,0.038,2.508,0.269,2.854,0.308C211.686,16.979,211.686,18.252,211.686,18.793
		L211.686,18.793z"/>
	<path d="M249.768,31.8v-2.393h-15.13c-3.125,0-6.753-0.156-9.648-0.464c-1.852-0.191-2.817-1.541-2.972-3.391
		c-0.077-1.271-0.153-6.591-0.153-8.248V3.278h-2.702v14.027c0,1.502,0.076,7.515,0.193,9.018c0.193,2.351,1.891,4.665,4.399,4.936
		c3.512,0.387,7.371,0.541,10.883,0.541H249.768L249.768,31.8z"/>
	<polygon points="254.97,31.8 254.97,3.278 252.268,3.278 252.268,31.8 254.97,31.8 	"/>
	<path d="M290.154,6.788v-3.51h-30.644V5.67h27.941v1.271c0,2.659-1.04,3.545-3.627,4.778l-19.992,9.633
		c-3.242,1.58-4.555,3.39-4.555,6.935V31.8h30.606v-2.393h-27.903v-1.311c0-2.697,0.925-3.507,3.551-4.778l20.029-9.633
		C288.805,12.144,290.154,10.333,290.154,6.788L290.154,6.788z"/>
	<path fill-rule="evenodd" clip-rule="evenodd" d="M324.61,12.81c0-1.466-0.038-2.895-0.191-4.322
		c-0.233-2.47-1.813-4.67-4.322-4.94c-3.475-0.386-7.45-0.541-10.962-0.541s-7.371,0.154-10.884,0.541
		c-2.509,0.27-4.207,2.585-4.4,4.94c-0.192,2.625-0.23,6.368-0.23,8.993c0,1.504,0.076,7.564,0.193,9.07
		c0.193,2.353,1.851,4.631,4.36,4.901c3.513,0.385,7.41,0.579,10.922,0.579c3.513,0,8.337-0.193,11.81-0.579
		c0.541-0.039,2.278-0.271,3.012-0.387l-0.193-2.393c-0.694,0.117-2.432,0.348-2.933,0.387c-3.474,0.385-8.222,0.579-11.695,0.579
		c-3.125,0-6.714-0.231-9.649-0.541c-1.851-0.193-2.816-1.504-2.971-3.357c-0.039-0.618-0.116-2.432-0.153-4.013
		c0.347,0.038,2.275,0.308,2.778,0.348c3.088,0.27,7.178,0.424,10.034,0.424c3.512,0,7.449-0.193,10.962-0.579
		c2.509-0.271,4.089-2.354,4.322-4.824C324.572,15.667,324.61,14.277,324.61,12.81L324.61,12.81z M321.91,12.695
		c0,1.196,0,2.586-0.116,3.782c-0.154,1.813-1.119,2.972-3.048,3.165c-3.013,0.308-6.639,0.463-9.611,0.463
		c-2.856,0-6.87-0.155-9.957-0.424c-0.503-0.039-2.509-0.31-2.855-0.347c0-1.312,0-2.587,0-3.127c0-2.316,0.037-4.593,0.193-6.947
		c0.153-1.853,1.08-3.204,2.931-3.396c2.936-0.309,6.562-0.463,9.688-0.463c2.973,0,6.599,0.077,9.611,0.386
		c1.929,0.192,2.894,1.428,3.048,3.242C321.91,10.225,321.91,11.498,321.91,12.695L321.91,12.695z"/>
	<path fill-rule="evenodd" clip-rule="evenodd" d="M360.531,31.8l-4.747-9.031c0.077,0,0.347-0.039,0.385-0.077
		c2.315-0.464,3.898-2.586,4.053-4.825c0.116-1.351,0.155-3.127,0.155-4.632c0-1.698-0.039-3.396-0.155-4.748
		c-0.191-2.354-1.892-4.631-4.398-4.901c-3.513-0.386-7.45-0.579-10.961-0.579c-3.512,0-7.371,0.193-10.885,0.579
		c-2.509,0.271-4.206,2.547-4.399,4.901c-0.115,1.505-0.193,4.053-0.193,5.558V31.8h2.702v-9.07c0.076,0,2.198,0.231,2.625,0.271
		c3.048,0.308,7.101,0.501,10.15,0.501c2.662,0,5.441-0.116,8.142-0.387l4.439,8.686H360.531L360.531,31.8z M357.675,13.235
		c0,1.351-0.077,2.817-0.153,4.014c-0.155,1.852-1.12,3.165-2.972,3.358c-2.935,0.308-6.562,0.501-9.688,0.501
		c-3.127,0-7.334-0.193-10.113-0.501c-0.385-0.04-2.546-0.348-2.662-0.348v-6.484c0-1.505,0.076-3.242,0.153-4.516
		c0.154-1.853,1.12-3.165,2.973-3.358c2.934-0.308,6.522-0.501,9.649-0.501c3.126,0,6.753,0.193,9.688,0.501
		c1.852,0.193,2.816,1.505,2.972,3.358C357.598,10.457,357.675,11.884,357.675,13.235L357.675,13.235z"/>
	<polygon points="398,18.533 398,8.884 390.945,8.884 390.945,18.533 379.832,18.533 389.174,2.133 381.357,2.133 371.291,20.081 
		371.291,24.964 390.945,24.964 390.945,32.311 398,32.311 398,24.964 398,18.533 	"/>
</g>
</svg>
